<?xml version="1.0" encoding="UTF-8"?>
<svg xmlns="http://www.w3.org/2000/svg" xmlns:xlink="http://www.w3.org/1999/xlink" width="82px" height="20px" viewBox="0 0 82 20" version="1.1">
<g id="surface1">
<path style=" stroke:none;fill-rule:nonzero;fill:rgb(0.784314%,11.372549%,60.000002%);fill-opacity:1;" d="M 11.429688 7.804688 C 10.859375 7.285156 10.191406 6.878906 9.453125 6.585938 C 8.710938 6.292969 7.867188 6.144531 6.949219 6.144531 C 5.964844 6.144531 5.050781 6.324219 4.234375 6.671875 C 3.421875 7.015625 2.710938 7.507812 2.121094 8.121094 C 1.535156 8.738281 1.074219 9.46875 0.75 10.296875 C 0.425781 11.121094 0.261719 12.027344 0.261719 12.988281 C 0.261719 13.941406 0.425781 14.84375 0.738281 15.660156 C 1.054688 16.484375 1.519531 17.214844 2.113281 17.828125 C 2.707031 18.445312 3.441406 18.933594 4.285156 19.28125 C 5.128906 19.628906 6.085938 19.800781 7.128906 19.800781 C 7.945312 19.800781 8.703125 19.699219 9.378906 19.5 C 10.066406 19.300781 10.675781 19.011719 11.191406 18.644531 C 11.710938 18.273438 12.15625 17.832031 12.511719 17.335938 C 12.863281 16.832031 13.128906 16.289062 13.292969 15.714844 C 13.335938 15.570312 13.308594 15.417969 13.214844 15.300781 C 13.128906 15.183594 12.988281 15.113281 12.839844 15.113281 L 9.382812 15.113281 C 9.207031 15.113281 9.042969 15.210938 8.960938 15.363281 C 8.804688 15.664062 8.59375 15.886719 8.316406 16.042969 C 8.035156 16.207031 7.648438 16.285156 7.175781 16.285156 C 6.441406 16.285156 5.890625 16.082031 5.496094 15.667969 C 5.175781 15.332031 4.949219 14.886719 4.808594 14.339844 L 13.066406 14.339844 C 13.324219 14.339844 13.535156 14.128906 13.539062 13.871094 C 13.554688 12.636719 13.394531 11.492188 13.058594 10.46875 C 12.722656 9.425781 12.175781 8.53125 11.429688 7.804688 M 4.839844 11.339844 C 4.972656 10.855469 5.171875 10.460938 5.441406 10.15625 C 5.769531 9.777344 6.265625 9.59375 6.949219 9.59375 C 7.527344 9.59375 7.980469 9.777344 8.324219 10.152344 C 8.601562 10.449219 8.789062 10.847656 8.886719 11.339844 Z M 4.839844 11.339844 "/>
<path style=" stroke:none;fill-rule:nonzero;fill:rgb(0.784314%,11.372549%,60.000002%);fill-opacity:1;" d="M 22.757812 6.484375 L 20.863281 6.484375 L 20.863281 3.113281 C 20.863281 2.855469 20.652344 2.644531 20.390625 2.644531 L 16.886719 2.644531 C 16.628906 2.644531 16.414062 2.855469 16.414062 3.113281 L 16.414062 6.484375 L 15.066406 6.484375 C 14.804688 6.484375 14.59375 6.695312 14.59375 6.957031 L 14.59375 9.214844 C 14.59375 9.472656 14.804688 9.683594 15.066406 9.683594 L 16.414062 9.683594 L 16.414062 15.945312 C 16.414062 16.628906 16.519531 17.207031 16.730469 17.664062 C 16.941406 18.136719 17.253906 18.523438 17.648438 18.816406 C 18.035156 19.105469 18.5 19.308594 19.027344 19.421875 C 19.523438 19.523438 20.070312 19.578125 20.664062 19.578125 C 21.167969 19.578125 21.605469 19.554688 21.972656 19.503906 C 22.328125 19.460938 22.605469 19.421875 22.804688 19.390625 C 23.035156 19.355469 23.207031 19.160156 23.207031 18.925781 L 23.207031 16.285156 C 23.207031 16.023438 22.996094 15.816406 22.730469 15.816406 L 22.550781 15.816406 C 22.53125 15.816406 22.511719 15.816406 22.492188 15.816406 C 22.378906 15.832031 22.253906 15.839844 22.117188 15.847656 C 21.574219 15.878906 21.214844 15.839844 21.007812 15.703125 C 20.917969 15.640625 20.863281 15.449219 20.863281 15.175781 L 20.863281 9.683594 L 22.753906 9.683594 C 23.019531 9.683594 23.230469 9.472656 23.230469 9.214844 L 23.230469 6.957031 C 23.230469 6.695312 23.019531 6.484375 22.757812 6.484375 "/>
<path style=" stroke:none;fill-rule:nonzero;fill:rgb(0.784314%,11.372549%,60.000002%);fill-opacity:1;" d="M 36.550781 8.121094 C 35.957031 7.503906 35.226562 7.015625 34.378906 6.667969 C 33.535156 6.320312 32.597656 6.144531 31.582031 6.144531 C 30.554688 6.144531 29.605469 6.320312 28.761719 6.667969 C 27.917969 7.015625 27.183594 7.503906 26.582031 8.117188 C 25.976562 8.734375 25.503906 9.464844 25.179688 10.296875 C 24.859375 11.121094 24.691406 12.027344 24.691406 12.988281 C 24.691406 13.945312 24.859375 14.847656 25.179688 15.675781 C 25.503906 16.507812 25.976562 17.238281 26.582031 17.855469 C 27.183594 18.46875 27.917969 18.957031 28.761719 19.304688 C 29.605469 19.652344 30.558594 19.828125 31.582031 19.828125 C 32.597656 19.828125 33.535156 19.652344 34.378906 19.304688 C 35.226562 18.957031 35.957031 18.46875 36.550781 17.851562 C 37.144531 17.238281 37.613281 16.503906 37.9375 15.675781 C 38.261719 14.847656 38.425781 13.945312 38.425781 12.988281 C 38.425781 12.027344 38.261719 11.125 37.9375 10.296875 C 37.613281 9.46875 37.144531 8.734375 36.550781 8.121094 M 33.226562 15.464844 C 32.839844 16.035156 32.292969 16.308594 31.558594 16.308594 C 30.8125 16.308594 30.261719 16.035156 29.882812 15.46875 C 29.46875 14.851562 29.257812 14.015625 29.257812 12.984375 C 29.257812 11.941406 29.46875 11.09375 29.886719 10.464844 C 30.265625 9.894531 30.8125 9.617188 31.558594 9.617188 C 32.292969 9.617188 32.839844 9.894531 33.222656 10.46875 C 33.644531 11.09375 33.863281 11.941406 33.863281 12.984375 C 33.863281 14.015625 33.648438 14.847656 33.226562 15.464844 "/>
<path style=" stroke:none;fill-rule:nonzero;fill:rgb(0.784314%,11.372549%,60.000002%);fill-opacity:1;" d="M 55.238281 6.144531 C 54.390625 6.144531 53.597656 6.34375 52.882812 6.738281 C 52.355469 7.027344 51.871094 7.453125 51.4375 8.011719 C 50.699219 6.769531 49.558594 6.144531 48.027344 6.144531 C 47.074219 6.144531 46.257812 6.363281 45.597656 6.785156 C 45.308594 6.972656 45.042969 7.199219 44.792969 7.457031 L 44.792969 6.957031 C 44.792969 6.695312 44.585938 6.484375 44.324219 6.484375 L 40.886719 6.484375 C 40.625 6.484375 40.414062 6.695312 40.414062 6.957031 L 40.414062 18.972656 C 40.414062 19.230469 40.625 19.441406 40.886719 19.441406 L 44.457031 19.441406 C 44.722656 19.441406 44.933594 19.230469 44.933594 18.972656 L 44.933594 12.128906 C 44.933594 11.460938 45.085938 10.941406 45.402344 10.542969 C 45.691406 10.175781 46.058594 10.003906 46.550781 10.003906 C 46.996094 10.003906 47.308594 10.125 47.511719 10.378906 C 47.738281 10.660156 47.851562 11.082031 47.851562 11.628906 L 47.851562 18.972656 C 47.851562 19.230469 48.0625 19.441406 48.324219 19.441406 L 51.894531 19.441406 C 52.15625 19.441406 52.371094 19.230469 52.371094 18.972656 L 52.371094 12.128906 C 52.371094 11.46875 52.523438 10.933594 52.832031 10.539062 C 53.113281 10.171875 53.472656 10 53.964844 10 C 54.398438 10 54.714844 10.128906 54.933594 10.386719 C 55.167969 10.667969 55.289062 11.085938 55.289062 11.628906 L 55.289062 18.972656 C 55.289062 19.230469 55.5 19.441406 55.761719 19.441406 L 59.3125 19.441406 C 59.574219 19.441406 59.785156 19.230469 59.785156 18.972656 L 59.785156 11.042969 C 59.785156 9.597656 59.402344 8.410156 58.652344 7.523438 C 57.878906 6.609375 56.730469 6.144531 55.238281 6.144531 "/>
<path style=" stroke:none;fill-rule:nonzero;fill:rgb(0.784314%,11.372549%,60.000002%);fill-opacity:1;" d="M 80.511719 7.507812 C 79.683594 6.605469 78.519531 6.144531 77.054688 6.144531 C 76.125 6.144531 75.300781 6.347656 74.597656 6.753906 C 74.28125 6.933594 73.992188 7.160156 73.730469 7.421875 L 73.730469 6.957031 C 73.730469 6.695312 73.519531 6.484375 73.253906 6.484375 L 69.800781 6.484375 C 69.535156 6.484375 69.324219 6.695312 69.324219 6.957031 L 69.324219 18.972656 C 69.324219 19.230469 69.535156 19.441406 69.800781 19.441406 L 73.371094 19.441406 C 73.632812 19.441406 73.84375 19.230469 73.84375 18.972656 L 73.84375 12.195312 C 73.84375 11.535156 74.015625 11.015625 74.367188 10.601562 C 74.703125 10.214844 75.132812 10.023438 75.691406 10.023438 C 76.214844 10.023438 76.59375 10.164062 76.839844 10.457031 C 77.109375 10.769531 77.238281 11.191406 77.238281 11.746094 L 77.238281 18.972656 C 77.238281 19.230469 77.453125 19.441406 77.714844 19.441406 L 81.261719 19.441406 C 81.527344 19.441406 81.738281 19.230469 81.738281 18.972656 L 81.738281 11.066406 C 81.738281 9.597656 81.324219 8.402344 80.511719 7.507812 "/>
<path style=" stroke:none;fill-rule:nonzero;fill:rgb(100%,34.901962%,34.901962%);fill-opacity:1;" d="M 67.074219 3.472656 C 66.953125 3.386719 66.792969 3.359375 66.652344 3.402344 L 62.832031 4.585938 C 62.636719 4.648438 62.5 4.832031 62.5 5.039062 L 62.5 6.792969 C 62.5 6.945312 62.574219 7.085938 62.691406 7.175781 C 62.773438 7.234375 62.871094 7.269531 62.972656 7.269531 C 63.019531 7.269531 63.066406 7.261719 63.113281 7.246094 L 66.929688 6.0625 C 67.128906 6.003906 67.261719 5.816406 67.261719 5.613281 L 67.261719 3.855469 C 67.261719 3.707031 67.191406 3.566406 67.074219 3.472656 "/>
<path style=" stroke:none;fill-rule:nonzero;fill:rgb(0.784314%,11.372549%,60.000002%);fill-opacity:1;" d="M 67.074219 0.265625 C 66.953125 0.175781 66.792969 0.152344 66.652344 0.195312 L 62.832031 1.378906 C 62.636719 1.441406 62.5 1.621094 62.5 1.832031 L 62.5 3.585938 C 62.5 3.738281 62.574219 3.878906 62.691406 3.964844 C 62.773438 4.027344 62.871094 4.058594 62.972656 4.058594 C 63.019531 4.058594 63.066406 4.050781 63.113281 4.039062 L 66.929688 2.855469 C 67.128906 2.792969 67.261719 2.609375 67.261719 2.402344 L 67.261719 0.644531 C 67.261719 0.496094 67.191406 0.355469 67.074219 0.265625 "/>
<path style=" stroke:none;fill-rule:nonzero;fill:rgb(0.784314%,11.372549%,60.000002%);fill-opacity:1;" d="M 67.074219 6.683594 C 66.953125 6.59375 66.792969 6.566406 66.652344 6.613281 L 62.832031 7.792969 C 62.636719 7.855469 62.5 8.039062 62.5 8.246094 L 62.5 10.003906 C 62.5 10.152344 62.574219 10.292969 62.691406 10.382812 C 62.773438 10.441406 62.871094 10.476562 62.972656 10.476562 C 63.019531 10.476562 63.066406 10.464844 63.113281 10.453125 L 66.929688 9.269531 C 67.128906 9.210938 67.261719 9.027344 67.261719 8.820312 L 67.261719 7.0625 C 67.261719 6.910156 67.191406 6.769531 67.074219 6.683594 "/>
<path style=" stroke:none;fill-rule:nonzero;fill:rgb(0.784314%,11.372549%,60.000002%);fill-opacity:1;" d="M 67.074219 9.785156 C 66.953125 9.699219 66.792969 9.671875 66.652344 9.714844 L 62.832031 10.898438 C 62.636719 10.960938 62.5 11.144531 62.5 11.347656 L 62.5 19.007812 C 62.5 19.269531 62.714844 19.480469 62.972656 19.480469 L 66.792969 19.480469 C 67.050781 19.480469 67.261719 19.269531 67.261719 19.007812 L 67.261719 10.167969 C 67.261719 10.019531 67.191406 9.878906 67.074219 9.785156 "/>
</g>
</svg>
